# xmcd
#
# Track frame offsets:
#	150
#	23885
#	43195
#	61158
#	85383
#	106645
#	138220
#	156970
#	177595
#	194510
#	226308
#	250870
#	270883
#	292740
#
# Disc length: 4212 seconds
#
# Revision: 6
# Processed by: cddbd v1.5.2PL0 Copyright (c) Steve Scherf et al.
# Submitted via: EasyCDDAExtractor 11.0.3.1
#
DISCID=b610720e
DTITLE=Phyllis Hyman - The Legacy of Phyllis Hyman [CD2]
DYEAR=1998
DGENRE=Soul
TTITLE0=Can't We Fall In Love Again (Duet With Michael Henderson)
TTITLE1=Don't Tell Me, Tell Her
TTITLE2=I Ain't Asking
TTITLE3=Tonight You And Me (Disco Version)
TTITLE4=Let Somebody Love You
TTITLE5=When I Give My Love (This Time)
TTITLE6=Why Did You Turn Me On
TTITLE7=Just Me And You
TTITLE8=Falling Star
TTITLE9=Living In Confusion
TTITLE10=I Don't Want To Lose You
TTITLE11=The Sunshine In My Life
TTITLE12=Old Friend
TTITLE13=Living All Alone
EXTD=
EXTT0=
EXTT1=
EXTT2=
EXTT3=
EXTT4=
EXTT5=
EXTT6=
EXTT7=
EXTT8=
EXTT9=
EXTT10=
EXTT11=
EXTT12=
EXTT13=
PLAYORDER=
